<svg xmlns="http://www.w3.org/2000/svg" width="70" height="71" fill="none" viewBox="0 0 70 71"><path fill="#48639E" stroke="#48639E" stroke-width=".6" d="M68 65.254v-.794H53.3V46.373H68v-.794H53.3v-7.325a3.12 3.12 0 0 0-.77-2.034 3.1 3.1 0 0 0-1.913-1.03v-1.349h-.791v1.35a3.1 3.1 0 0 0-1.912 1.03 3.12 3.12 0 0 0-.772 2.033v2.81H42.22V35.31h-3.087a4.29 4.29 0 0 0-1.887-4.973 4.26 4.26 0 0 0-1.802-.583V28h-.791v1.762a4.26 4.26 0 0 0-3.174 1.89 4.28 4.28 0 0 0-.515 3.666h-3.166v5.753h-4.932v-2.817a3.12 3.12 0 0 0-.773-2.032 3.1 3.1 0 0 0-1.91-1.032v-1.349h-.791v1.35a3.1 3.1 0 0 0-1.907 1.031 3.12 3.12 0 0 0-.769 2.032v7.31H2v.793h14.7v18.087H2v.794h14.7v3.968H2V70h66v-.73H53.3v-3.968zM17.586 37.659a2.286 2.286 0 0 1 2.196-1.674 2.276 2.276 0 0 1 2.197 1.674zm-.08 3.404v-2.595h4.552v2.595zm0 23.381V41.873h4.552v22.571zm5.36-15.206v-7.365h4.939v7.365zm0 5.127v-4.317h4.939v4.317zm0 6.262v-5.452h4.939v5.452zm9.19-14.222v-4.532h5.897v4.532zm0 5.127v-4.318h5.897v4.318zm5.897.793v8.302h-5.898v-8.286zm-2.55-14.888v-1.318h2.55v4.944h-5.898V36.12h2.55v1.318zm-6.79 3.627v-4.945h2.635v4.944zm3.165-5.754a3.3 3.3 0 0 1-.245-1.27 3.5 3.5 0 0 1 1.26-2.687 3.479 3.479 0 0 1 5.698 2.453 3.5 3.5 0 0 1-.23 1.504zm9.65 6.563v18.754H38.76V41.873zm-2.636-.794v-4.96h2.635v4.944zm-10.18 19.548V41.873h2.636v18.754zM42.22 49.238v-7.365h4.931v7.365zm0 5.127v-4.317h4.931v4.317zm0 6.262v-5.46h4.931v5.46zm-19.354 3.817v-3.008h24.27v3.008zM48.021 37.66a2.286 2.286 0 0 1 2.2-1.689 2.276 2.276 0 0 1 2.201 1.689zm-.079 3.404v-2.595h4.567v2.595zm0 23.381V41.873h4.567v22.571zM17.507 69.27v-3.968h35.002v3.968z"/><path fill="#24A7D0" d="M13.976 52.016a.698.698 0 1 0-.001-1.395.698.698 0 0 0 .001 1.395M4.003 52.016A.697.697 0 1 0 4 50.621a.697.697 0 0 0 .002 1.395M8.99 52.016a.698.698 0 1 0-.002-1.395.698.698 0 0 0 .002 1.395M13.976 56.127a.698.698 0 1 0-.001-1.395.698.698 0 0 0 .001 1.395M4.003 56.127A.697.697 0 1 0 4 54.732a.697.697 0 0 0 .002 1.395M8.99 56.127a.698.698 0 1 0-.002-1.395.698.698 0 0 0 .002 1.395M13.976 60.23a.698.698 0 1 0-.001-1.395.698.698 0 0 0 .001 1.395M4.003 60.23A.697.697 0 1 0 4 58.835a.697.697 0 0 0 .002 1.395M8.99 60.23a.698.698 0 1 0-.002-1.395.698.698 0 0 0 .002 1.395M66.33 52.016a.698.698 0 1 0-.002-1.395.698.698 0 0 0 .002 1.395M56.356 52.016a.697.697 0 1 0-.001-1.395.697.697 0 0 0 .001 1.395M61.343 52.016a.698.698 0 1 0-.002-1.395.698.698 0 0 0 .002 1.395M66.33 56.127a.698.698 0 1 0-.002-1.395.698.698 0 0 0 .002 1.395M56.356 56.127a.697.697 0 1 0-.001-1.395.697.697 0 0 0 .001 1.395M61.343 56.127a.698.698 0 1 0-.002-1.395.698.698 0 0 0 .002 1.395M66.33 60.23a.698.698 0 1 0-.002-1.395.698.698 0 0 0 .002 1.395M56.356 60.23a.697.697 0 1 0-.001-1.395.697.697 0 0 0 .001 1.395M61.343 60.23a.698.698 0 1 0-.002-1.395.698.698 0 0 0 .002 1.395"/><path stroke="#24A7D0" stroke-width=".6" d="M13.976 52.016a.698.698 0 1 0-.001-1.395.698.698 0 0 0 .001 1.395ZM4.003 52.016A.697.697 0 1 0 4 50.621a.697.697 0 0 0 .002 1.395ZM8.99 52.016a.698.698 0 1 0-.002-1.395.698.698 0 0 0 .002 1.395ZM13.976 56.127a.698.698 0 1 0-.001-1.395.698.698 0 0 0 .001 1.395ZM4.003 56.127A.697.697 0 1 0 4 54.732a.697.697 0 0 0 .002 1.395ZM8.99 56.127a.698.698 0 1 0-.002-1.395.698.698 0 0 0 .002 1.395ZM13.976 60.23a.698.698 0 1 0-.001-1.395.698.698 0 0 0 .001 1.395ZM4.003 60.23A.697.697 0 1 0 4 58.835a.697.697 0 0 0 .002 1.395ZM8.99 60.23a.698.698 0 1 0-.002-1.395.698.698 0 0 0 .002 1.395ZM66.33 52.016a.698.698 0 1 0-.002-1.395.698.698 0 0 0 .002 1.395ZM56.356 52.016a.697.697 0 1 0-.001-1.395.697.697 0 0 0 .001 1.395ZM61.343 52.016a.698.698 0 1 0-.002-1.395.698.698 0 0 0 .002 1.395ZM66.33 56.127a.698.698 0 1 0-.002-1.395.698.698 0 0 0 .002 1.395ZM56.356 56.127a.697.697 0 1 0-.001-1.395.697.697 0 0 0 .001 1.395ZM61.343 56.127a.698.698 0 1 0-.002-1.395.698.698 0 0 0 .002 1.395ZM66.33 60.23a.698.698 0 1 0-.002-1.395.698.698 0 0 0 .002 1.395ZM56.356 60.23a.697.697 0 1 0-.001-1.395.697.697 0 0 0 .001 1.395ZM61.343 60.23a.698.698 0 1 0-.002-1.395.698.698 0 0 0 .002 1.395Z"/></svg>