<svg xmlns="http://www.w3.org/2000/svg" width="70" height="71" fill="none" viewBox="0 0 70 71"><path fill="#48639E" d="M39.535 32.788h-8.927v-4.616l-.617-1.626h10.345l-.801 1.45zm-8.217-.704h7.507V27.82l.312-.57h-8.124l.305.858z"/><path fill="#48639E" stroke="#48639E" stroke-width=".3" d="M58.615 69.296v-6.481h.936v-.704h-.936V52.069h.936v-.704h-.936v-5.777h.936v-.704h-.936v-5.292h.936v-.703h-.936v-6.052h.936v-.704h-.936v-3.518l.71-1.464h-7.458l.71 1.527v3.427H17.693v-3.406l.71-1.527h-7.472l.71 1.464v3.518h-.965v.704h.95v6.03h-.95v.704h.95v5.3h-.95v.703h.95v5.777h-.95v.704h.95v10.035h-.95v.704h.95v6.48H5V70h21.166v-7.184h.433v-.704h-.433v-3.765h17.91v3.765h-.433v.704h.433V70h21.159v-.704zm-41.332-41.42-.263.605v3.645h-4.683v-3.575l-.284-.703zm-.355 11.013h-4.591v-6.052h4.59zm-4.591 12.476v-5.777h4.59v5.777zm4.59.704v10.042h-4.59V52.069zm-4.59-7.185v-5.292h4.59v5.3zm13.12 24.412h-13.12v-6.481h13.12zm0-10.95v3.765H17.65V52.069h7.806zm0-6.98H17.65v-5.778h7.806zm0-6.482H17.65v-5.292h7.806zm0-6.002H17.65V32.83h7.806zm18.619 18.76h-17.91V52.07h17.91zm0-6.277h-17.91v-5.777h17.91zm0-6.48h-17.91v-5.293h17.91zm0-6.003h-17.91V32.83h17.91zm.71-6.052h7.755v6.059h-7.756zm0 6.755h7.755v5.3h-7.756zm0 6.003h7.755v5.777h-7.756zm0 12.758V52.07h7.755v10.042h-7.756zm13.12 10.95h-13.12v-6.481h13.12zm0-7.185H53.25V52.069h4.67zm0-10.746H53.25v-5.777h4.67zm0-6.48H53.25v-5.293h4.67zm0-6.003H53.25V32.83h4.67zm0-10.33v3.574H53.25v-3.645l-.27-.605h5.237z"/><path fill="#48639E" d="M14.402 24.716a1.47 1.47 0 0 0-1.034.425 1.45 1.45 0 0 0-.428 1.025v1.647h2.924v-1.647a1.45 1.45 0 0 0-.43-1.023 1.48 1.48 0 0 0-1.032-.427m.752 2.393H13.65v-.943c0-.198.079-.388.22-.527a.755.755 0 0 1 1.064 0c.14.14.22.33.22.527zM20.937 29.408a1.47 1.47 0 0 0-1.031.425 1.44 1.44 0 0 0-.424 1.025v1.64h2.916v-1.64c0-.384-.154-.753-.428-1.025a1.47 1.47 0 0 0-1.033-.425m.752 2.386h-1.497v-.936a.74.74 0 0 1 .444-.754.76.76 0 0 1 .861.18.75.75 0 0 1 .192.574zM27.273 29.408c-.387 0-.76.153-1.033.425-.274.272-.428.64-.428 1.025v1.64h2.916v-1.64a1.43 1.43 0 0 0-.424-1.024 1.46 1.46 0 0 0-1.03-.426m.71 2.386H26.52v-.936a.74.74 0 0 1 .444-.754.76.76 0 0 1 .862.18.75.75 0 0 1 .191.574zM55.79 24.716c.388 0 .76.153 1.034.425s.428.64.428 1.025v1.647H54.33v-1.647c.002-.384.156-.752.43-1.023a1.48 1.48 0 0 1 1.032-.427m-.751 2.393h1.504v-.943a.74.74 0 0 0-.22-.527.755.755 0 0 0-1.064 0 .74.74 0 0 0-.22.527zM49.256 29.408a1.47 1.47 0 0 1 1.03.425 1.44 1.44 0 0 1 .424 1.025v1.64h-2.916v-1.64c0-.384.154-.753.428-1.025a1.47 1.47 0 0 1 1.034-.425m-.753 2.386h1.498v-.936a.74.74 0 0 0-.444-.754.76.76 0 0 0-.862.18.75.75 0 0 0-.192.574zM42.92 29.408c.387 0 .759.153 1.033.425s.428.64.428 1.025v1.64h-2.924v-1.64c0-.384.154-.753.429-1.025a1.47 1.47 0 0 1 1.033-.425m-.753 2.386h1.504v-.936a.74.74 0 0 0-.464-.69.76.76 0 0 0-.983.405.7.7 0 0 0-.057.285zM38.633 69.648V65.13a1.5 1.5 0 0 0-.34-.852 1.52 1.52 0 0 0-.774-.499 2.96 2.96 0 0 0 .142-2.181c-.333-.88-1.178-1.513-2.512-1.893v.084-.084c-1.334.38-2.178 1.013-2.504 1.893a2.96 2.96 0 0 0 .134 2.181 1.53 1.53 0 0 0-.788.524c-.2.253-.314.562-.325.883v4.497h.709V65.18a.83.83 0 0 1 .611-.742.9.9 0 0 1 .34-.025h.653l-.355-.542a2.55 2.55 0 0 1-.312-2.026c.18-.361.443-.676.767-.92s.7-.41 1.099-.488c.399.077.775.244 1.099.488s.586.559.767.92a2.57 2.57 0 0 1-.312 2.026l-.355.542h.653c.22-.028.442.03.62.161a.84.84 0 0 1 .33.543v4.497z"/><path fill="#24A7D0" d="M50.327 34.667h-3.35v2.92h3.35zm-.71 2.216h-1.93V35.37h1.93zM51.668 34.843h-.71v2.526h.71zM46.346 34.843h-.71v2.526h.71zM50.327 47.017h-3.35v2.92h3.35zm-.71 2.216h-1.93v-1.512h1.93zM51.668 47.214h-.71v2.526h.71zM46.346 47.214h-.71v2.526h.71zM46.978 61.703h3.349v-2.928h-3.35zm.71-2.224h1.93V61h-1.93zM51.668 58.98h-.71v2.526h.71zM46.346 58.98h-.71v2.526h.71zM23.222 34.667H19.9v2.92h3.349zm-.71 2.216H20.61V35.37h1.93zM24.563 34.843h-.71v2.526h.71zM19.241 34.843h-.71v2.526h.71zM23.222 47.017H19.9v2.927h3.349zm-.71 2.224H20.61v-1.52h1.93zM24.563 47.214h-.71v2.526h.71zM19.241 47.214h-.71v2.526h.71zM19.9 61.703h3.35v-2.92H19.9zm.71-2.217h1.93V61h-1.93zM24.563 58.98h-.71v2.526h.71zM19.241 58.98h-.71v2.526h.71zM13.756 31.184c0-.198.08-.388.22-.528a.755.755 0 0 1 1.064 0c.141.14.22.33.22.527v.944h.71v-.944c0-.384-.154-.753-.428-1.024a1.47 1.47 0 0 0-2.067 0c-.274.271-.428.64-.428 1.024v.944h.709zM14.629 42.5c-.386 0-.756.151-1.029.422-.273.27-.426.637-.426 1.02v.943h.71v-.943a.74.74 0 0 1 .243-.48.756.756 0 0 1 1.254.48v.943h.71v-.943a1.43 1.43 0 0 0-.429-1.023 1.46 1.46 0 0 0-1.033-.42M14.629 59.647a1.46 1.46 0 0 0-1.029.422c-.273.27-.426.638-.426 1.02v.943h.71v-.943a.74.74 0 0 1 .243-.48.756.756 0 0 1 1.254.48v.943h.71v-.943a1.43 1.43 0 0 0-.429-1.022 1.46 1.46 0 0 0-1.033-.42M54.755 31.184c0-.198.079-.388.22-.528a.755.755 0 0 1 1.064 0c.14.14.22.33.22.527v.944h.71v-.944c0-.384-.154-.753-.429-1.024a1.47 1.47 0 0 0-2.067 0c-.274.271-.428.64-.428 1.024v.944h.71zM55.628 42.5c-.38.008-.741.164-1.006.434s-.414.631-.414 1.008v.943h.71v-.943a.74.74 0 0 1 .243-.48.756.756 0 0 1 1.254.48v.943h.71v-.943a1.43 1.43 0 0 0-.441-1.035 1.46 1.46 0 0 0-1.056-.408M55.628 59.647c-.38.01-.741.166-1.006.435-.265.27-.414.631-.414 1.008v.943h.71v-.943a.74.74 0 0 1 .243-.48.756.756 0 0 1 1.254.48v.943h.71v-.943a1.43 1.43 0 0 0-.441-1.035 1.46 1.46 0 0 0-1.056-.408"/><path fill="#48639E" d="M35.121 23.88a1.46 1.46 0 0 0-1.033.42 1.44 1.44 0 0 0-.429 1.022v1.646h2.924v-1.646a1.44 1.44 0 0 0-.43-1.02 1.47 1.47 0 0 0-1.032-.423m.752 2.385H34.37v-.943c0-.198.08-.388.22-.528a.755.755 0 0 1 1.064 0c.14.14.22.33.22.528z"/><path fill="#48639E" d="M35.476 22h-.71v1.879h.71z"/><path stroke="#24A7D0" stroke-miterlimit="10" d="M36.753 28.544H33.49v2.386h3.264z"/><path fill="#48639E" d="M36.718 35.3a1.2 1.2 0 0 0-.816.324 1.184 1.184 0 0 0-1.618-.007 1.18 1.18 0 0 0-.802-.317c-.318 0-.623.125-.848.348a1.18 1.18 0 0 0-.351.841v1.5h5.634v-1.5c0-.315-.127-.618-.352-.84a1.2 1.2 0 0 0-.847-.349m-3.726 1.985v-.796a.48.48 0 0 1 .303-.448.484.484 0 0 1 .62.237q-.012.106 0 .211v.796zm1.682 0v-.796q.01-.105 0-.21a.48.48 0 0 1 .458-.27.49.49 0 0 1 .429.311 1 1 0 0 0 0 .17v.794zm2.533 0h-.922v-.796a1 1 0 0 0 0-.169.47.47 0 0 1 .447-.316.49.49 0 0 1 .49.485zM36.718 47.412a1.2 1.2 0 0 0-.816.323 1.183 1.183 0 0 0-1.618-.007 1.18 1.18 0 0 0-.802-.316c-.318 0-.623.125-.848.348a1.19 1.19 0 0 0-.351.84v1.5h5.634v-1.5c0-.315-.127-.617-.352-.84a1.2 1.2 0 0 0-.847-.348m-3.726 1.984v-.795a.48.48 0 0 1 .303-.449.485.485 0 0 1 .62.238q-.012.105 0 .21v.796zm1.682 0v-.795q.01-.105 0-.211a.48.48 0 0 1 .458-.27.49.49 0 0 1 .429.312 1 1 0 0 0 0 .169v.795zm2.533 0h-.922v-.795a1 1 0 0 0 0-.169.47.47 0 0 1 .447-.317.49.49 0 0 1 .49.486z"/><path fill="#24A7D0" d="M31.964 53.596h-.71v2.527h.71zM33.872 53.596h-.71v2.527h.71zM35.774 53.596h-.71v2.527h.71zM37.683 53.596h-.71v2.527h.71zM39.591 53.596h-.71v2.527h.71z"/><path fill="#48639E" d="M65.235 69.296H5V70h60.235z"/></svg>