<svg xmlns="http://www.w3.org/2000/svg" width="71" height="71" fill="none" viewBox="0 0 71 71"><path fill="#24A7D0" d="M40.766 35.69a1.283 1.283 0 1 0 0 2.566 1.283 1.283 0 0 0 0-2.565m.626 1.284a.627.627 0 1 1-1.253 0 .627.627 0 0 1 1.253 0M36.124 35.69a1.283 1.283 0 1 0 0 2.566 1.283 1.283 0 0 0 0-2.565m.627 1.284a.626.626 0 1 1-1.252 0 .626.626 0 0 1 1.252 0M31.483 35.69a1.283 1.283 0 1 0 0 2.566 1.283 1.283 0 0 0 0-2.565m.626 1.284a.626.626 0 1 1-1.251 0 .626.626 0 0 1 1.251 0M22.343 44.25a1.283 1.283 0 1 0 0 2.565 1.283 1.283 0 0 0 0-2.566m.62 1.282a.626.626 0 1 1-1.253.015.626.626 0 0 1 1.252-.015M17.702 44.25a1.283 1.283 0 1 0 0 2.565 1.283 1.283 0 0 0 0-2.566m.619 1.282a.626.626 0 1 1-1.252.015.626.626 0 0 1 1.252-.015M13.076 44.25a1.283 1.283 0 1 0 0 2.565 1.283 1.283 0 0 0 0-2.566m.626 1.282a.627.627 0 0 1-.626.627.627.627 0 1 1 0-1.246.626.626 0 0 1 .626.62M59.28 44.25a1.283 1.283 0 1 0 0 2.565 1.283 1.283 0 0 0 0-2.566m.626 1.282a.626.626 0 1 1-1.253.015.626.626 0 0 1 1.253-.015M54.638 44.25a1.283 1.283 0 1 0 0 2.565 1.283 1.283 0 0 0 0-2.566m.619 1.282a.626.626 0 1 1-1.253.015.626.626 0 0 1 1.253-.015M49.996 44.25a1.283 1.283 0 1 0 0 2.565 1.283 1.283 0 0 0 0-2.566m.62 1.282a.627.627 0 1 1-1.254.015.627.627 0 0 1 1.253-.015"/><path fill="#48639E" stroke="#48639E" stroke-width=".6" d="M66.66 69.245V64h-2.475V52.876h2.913v-.853h-2.913v-8.876h2.913v-.838h-2.913v-5.003h-.045a.43.43 0 0 0-.227-.204 27.8 27.8 0 0 0-16.875-1.117v-2.166h2.105v-.853h-4.37V30h-17.84v2.966h-4.876v.853h2.068v2.03a28.2 28.2 0 0 0-16.333 1.253.4.4 0 0 0-.226.204h-.045v5.003H4.608v.853H7.52v8.86H4.608v.854H7.52v11.086H4.84v5.283H1V70h69.69v-.755zm-3.328-31.449v4.332a28.5 28.5 0 0 0-9.728-1.705 22.9 22.9 0 0 0-8.913 1.592v-4.272c.935-.43 8.74-3.713 18.641.053ZM44.691 57.238V42.98c.943-.43 8.74-3.713 18.641.045v14.212zm18.641.853V64H44.691v-5.91zM27.785 30.853H43.92v2.113H27.785zm-2.808 2.966h21.185v2.415a8.3 8.3 0 0 0-2.143.92.4.4 0 0 0-.128.152h-.046v3.102h-15.97v-3.102h-.045a.4.4 0 0 0-.128-.151 10.1 10.1 0 0 0-2.725-1.117zm10.876 10.158c-2.853 0-5.17 1.729-5.17 3.85V64h-2.815V41.26h15.97V64H41V47.826c0-2.128-2.317-3.849-5.17-3.849zm4.317 3.85V64h-8.634V47.826c0-1.652 1.94-3.019 4.317-3.019s4.317 1.344 4.317 3.02ZM8.374 37.796c9.902-3.774 17.705-.484 18.641-.054v4.272c-2.838-1.313-10.566-2.845-18.641.113zm0 5.237c9.902-3.774 17.705-.483 18.641-.045v14.249H8.374zm0 15.094h18.641v5.91H8.374zm-2.68 6.793H65.8v4.302H5.694z"/></svg>